#N canvas 1422 129 423 394 10;
#X floatatom 147 101 5 0 0 0 - - -, f 5;
#X obj 54 77 netreceive 13009;
#X obj 54 125 print TCP;
#X msg 188 405;
#X obj 142 169 bng 15 250 50 0 empty empty empty 17 7 0 10 -262144
-1 -1;
#X obj 181 169 bng 15 250 50 0 empty empty empty 17 7 0 10 -262144
-1 -1;
#X obj 220 169 bng 15 250 50 0 empty empty empty 17 7 0 10 -262144
-1 -1;
#X obj 259 169 bng 15 250 50 0 empty empty empty 17 7 0 10 -262144
-1 -1;
#X obj 142 141 route Hello 127 Test;
#X connect 1 0 2 0;
#X connect 1 0 8 0;
#X connect 1 1 0 0;
#X connect 8 0 4 0;
#X connect 8 1 5 0;
#X connect 8 2 6 0;
#X connect 8 3 7 0;
